<?xml version="1.0" encoding="UTF-8" standalone="no"?>
<!-- Created with Inkscape (http://www.inkscape.org/) -->

<svg
   version="1.1"
   id="svg2"
   width="1484.454"
   height="1489.4545"
   viewBox="0 0 1484.454 1489.4545"
   xml:space="preserve"
   sodipodi:docname="favicon.svg"
   inkscape:version="1.1.2 (0a00cf5339, 2022-02-04)"
   xmlns:inkscape="http://www.inkscape.org/namespaces/inkscape"
   xmlns:sodipodi="http://sodipodi.sourceforge.net/DTD/sodipodi-0.dtd"
   xmlns="http://www.w3.org/2000/svg"
   xmlns:svg="http://www.w3.org/2000/svg"><sodipodi:namedview
     id="namedview20"
     pagecolor="#ffffff"
     bordercolor="#666666"
     borderopacity="1.0"
     inkscape:pageshadow="2"
     inkscape:pageopacity="0.0"
     inkscape:pagecheckerboard="0"
     showgrid="false"
     lock-margins="false"
     inkscape:zoom="0.19488164"
     inkscape:cx="236.04071"
     inkscape:cy="1375.1937"
     inkscape:window-width="2560"
     inkscape:window-height="1007"
     inkscape:window-x="0"
     inkscape:window-y="0"
     inkscape:window-maximized="1"
     inkscape:current-layer="svg2" /><defs
     id="defs6" /><g
     id="g8"
     transform="matrix(3.2763735,0,0,3.2763735,-2594.1217,-1002.0391)"><g
       id="g4044"
       transform="translate(13.108154,-74.541381)"><g
         id="g3023"
         transform="matrix(0.86534827,0,0,0.86534827,141.70335,212.3262)" /><g
         id="g3031"
         transform="matrix(1.0617351,0,0,1.0617351,4.0311086,51.03816)"><path
           id="path392"
           style="fill:#505051;fill-opacity:1;stroke-width:0.727273"
           d="m 1024.0297,434.15965 c -11.3167,9.34667 -23.9777,16.47454 -37.77738,22.39649 -1.5271,0.673 -1.5281,0.67267 -3.0859,1.35937 -21.2408,8.56159 -43.9843,9.54536 -66.57034,9.38086 -1.3046,-0.001 -2.60912,0 -3.95312,0 -22.02998,-0.049 -43.04367,-2.12945 -64.61914,-6.84375 -0.51426,-0.0603 -1.02585,-0.12511 -1.52687,-0.17852 -0.50103,-0.0534 -0.99148,-0.0955 -1.46345,-0.11037 -0.47197,-0.0149 -0.92547,-0.003 -1.35257,0.0526 -0.4271,0.0552 -0.77184,0.19795 -1.10577,0.38286 l -0.41886,0.38054 -0.38867,0.4043 -0.38867,0.40429 -0.38868,0.4043 -0.38867,0.4043 -0.38867,0.4043 -0.38867,0.40429 -0.38868,0.4043 c -12.43824,12.94175 -24.50043,33.40498 -30.3981,51.79315 -11.61663,36.21923 -8.65357,80.11966 7.59375,112.4961 12.00455,23.92207 27.03454,41.18261 48.26758,55.42968 8.03365,5.39039 22.88316,12.92051 32.34765,16.4043 11.31858,4.1662 27.85279,7.69783 42.21485,9.01563 6.4951,0.59599 28.8927,-0.2643 36.3633,-1.39649 23.7717,-3.6023 47.17968,-12.88272 65.96478,-26.1543 29.3925,-20.76586 50.0026,-52.86052 56.875,-88.56445 5.1434,-26.72125 3.0605,-57.63795 -5.4844,-81.4082 -2.2709,-6.31729 -9.4063,-20.7507 -13.5605,-27.42969 -13.1515,-21.14437 -32.595,-38.3992 -55.5898,-49.83594 z m -71.51758,39.83594 c 7.6668,0.008 15.2738,0.90254 22.0117,2.74805 26.38918,7.22788 46.78518,30.09983 54.04688,60.60937 3.5276,14.82067 3.9674,28.54511 1.3965,43.48828 -6.4591,37.54293 -30.62958,64.24752 -63.32618,69.9668 v -0.002 c -7.8029,1.3683 -22.5119,1.3666 -30.00002,0 -32.3741,-5.90851 -55.55203,-31.2785 -63.07812,-69.04492 -1.81979,-9.13289 -1.83205,-29.45296 -0.0234,-38.51954 5.8453,-29.30304 21.04459,-50.82604 43.9082,-62.16992 9.34392,-4.63595 22.28634,-7.08904 35.06444,-7.07617 z" /><path
           d="m 1071.8544,314.814 c 0.02,0.24588 0.038,0.49243 0.056,0.73892 0.018,0.24649 0.034,0.49329 0.05,0.74037 0.015,0.24708 0.03,0.49446 0.043,0.74212 0.013,0.24766 0.026,0.4956 0.037,0.74383 0.011,0.24822 0.022,0.49671 0.031,0.74548 0.01,0.24876 0.017,0.49779 0.025,0.74708 0.01,0.24929 0.013,0.49884 0.018,0.74864 0.01,0.2498 0.01,0.49985 0.013,0.75015 0,0.25029 0.01,0.50083 0.01,0.7516 0,0.25077 0,0.50177 4e-4,0.753 -9e-4,0.25123 0,0.50269 -0.01,0.75436 0,0.25168 -0.01,0.50357 -0.011,0.75567 0,0.2521 -0.011,0.50441 -0.018,0.75693 -0.01,0.25251 -0.015,0.50522 -0.023,0.75813 -0.01,0.2529 -0.019,0.506 -0.029,0.75928 -0.011,0.25328 -0.022,0.50675 -0.035,0.76039 -0.013,0.25365 -0.026,0.50747 -0.041,0.76145 -0.014,0.25399 -0.03,0.50815 -0.047,0.76246 -0.016,0.25432 -0.034,0.50879 -0.052,0.76341 -0.018,0.25463 -0.038,0.50941 -0.058,0.76433 -0.02,0.25491 -0.041,0.50998 -0.063,0.76517 -0.022,0.2552 -0.045,0.51053 -0.069,0.76599 -0.024,0.25546 -0.049,0.51104 -0.074,0.76674 -0.026,0.25571 -0.052,0.51153 -0.08,0.76746 -0.028,0.25593 -0.056,0.51196 -0.085,0.76811 -0.029,0.25614 -0.06,0.51238 -0.091,0.76871 -0.031,0.25634 -0.063,0.51277 -0.096,0.76928 -0.033,0.25651 -0.067,0.51311 -0.1016,0.76979 -0.035,0.25667 -0.071,0.51342 -0.107,0.77024 -0.037,0.25682 -0.074,0.51371 -0.1123,0.77065 -0.038,0.25695 -0.077,0.51396 -0.1175,0.77102 -0.04,0.25705 -0.081,0.51416 -0.1226,0.77132 -0.042,0.25715 -0.084,0.51435 -0.1279,0.77158 -0.043,0.25723 -0.088,0.5145 -0.133,0.77179 -0.045,0.25729 -0.091,0.51461 -0.138,0.77195 -0.047,0.25734 -0.095,0.51469 -0.1432,0.77206 -0.048,0.25737 -0.098,0.51474 -0.1481,0.77212 -0.05,0.25738 -0.1013,0.51476 -0.1531,0.77213 -0.052,0.25738 -0.1046,0.51474 -0.1581,0.7721 -0.053,0.25735 -0.1078,0.51468 -0.1629,0.772 -0.055,0.25731 -0.1111,0.5146 -0.1678,0.77186 -0.057,0.25726 -0.1143,0.51449 -0.1727,0.77168 -0.058,0.25719 -0.1175,0.51433 -0.1774,0.77143 -0.06,0.2571 -0.1207,0.51416 -0.1822,0.77115 -0.062,0.257 -0.1238,0.51394 -0.1869,0.77081 -0.063,0.25687 -0.1269,0.51368 -0.1916,0.77042 -0.065,0.25674 -0.13,0.5134 -0.1962,0.76998 -0.066,0.25659 -0.1331,0.51309 -0.2008,0.7695 -0.068,0.25641 -0.1361,0.51273 -0.2054,0.76896 -0.069,0.25622 -0.1392,0.51235 -0.2099,0.76837 -0.071,0.25602 -0.1422,0.51193 -0.2144,0.76773 -0.072,0.2558 -0.1451,0.51148 -0.2188,0.76704 -0.074,0.25556 -0.1481,0.511 -0.2233,0.76631 -0.075,0.25531 -0.151,0.51049 -0.2276,0.76552 -0.077,0.25504 -0.154,0.50994 -0.232,0.76469 -0.078,0.25475 -0.1568,0.50935 -0.2363,0.7638 -0.08,0.25444 -0.1597,0.50873 -0.2406,0.76286 -0.081,0.25412 -0.1624,0.50808 -0.2447,0.76187 -0.082,0.25379 -0.1653,0.50741 -0.249,0.76084 -0.084,0.25344 -0.1681,0.50669 -0.2531,0.75976 -0.085,0.25306 -0.1708,0.50594 -0.2573,0.75861 -0.086,0.25268 -0.1735,0.50516 -0.2613,0.75744 -0.088,0.25227 -0.1762,0.50434 -0.2653,0.7562 -0.089,0.25185 -0.179,0.50349 -0.2694,0.75491 -0.091,0.25142 -0.1816,0.50261 -0.2733,0.75358 -0.092,0.25096 -0.1842,0.50169 -0.2773,0.75219 -0.093,0.25049 -0.1868,0.50075 -0.2811,0.75076 -0.094,0.25 -0.1894,0.49976 -0.2851,0.74927 -0.096,0.2495 -0.1919,0.49875 -0.2888,0.74774 -0.097,0.24898 -0.1944,0.49771 -0.2926,0.74615 -0.098,0.24845 -0.1969,0.49663 -0.2963,0.74453 -0.099,0.24789 -0.1994,0.49551 -0.3001,0.74283 -0.1006,0.24733 -0.2018,0.49437 -0.3037,0.74111 -0.1018,0.24674 -0.2043,0.49318 -0.3073,0.73932 -0.1031,0.24614 -0.2067,0.49197 -0.311,0.73749 -0.1042,0.24552 -0.209,0.49072 -0.3144,0.7356 -0.1055,0.24488 -0.2115,0.48944 -0.318,0.73367 -0.1066,0.24423 -0.2138,0.48813 -0.3215,0.73169 -0.1078,0.24356 -0.2161,0.48679 -0.325,0.72966 -0.1088,0.24287 -0.2183,0.4854 -0.3283,0.72757 -0.11,0.24218 -0.2206,0.48399 -0.3317,0.72545 -0.1111,0.24145 -0.2228,0.48254 -0.335,0.72326 -0.1123,0.24071 -0.225,0.48106 -0.3384,0.72103 -0.1133,0.23996 -0.2271,0.47955 -0.3415,0.71874 -0.1144,0.2392 -0.2294,0.47801 -0.3448,0.71642 -0.1155,0.23841 -0.2315,0.47642 -0.348,0.71403 -0.1165,0.23761 -0.2336,0.47481 -0.3511,0.7116 -0.1176,0.23679 -0.2357,0.47317 -0.3543,0.70913 -0.1185,0.23595 -0.2376,0.47148 -0.3573,0.70659 -0.1196,0.2351 -0.2397,0.46977 -0.3603,0.70401 -0.1206,0.23423 -0.2417,0.46803 -0.3633,0.70138 -0.1216,0.23335 -0.2437,0.46625 -0.3663,0.6987 -0.1226,0.23245 -0.2456,0.46444 -0.3692,0.69597 -0.1235,0.23153 -0.2475,0.46259 -0.372,0.69319 -0.1245,0.23059 -0.2495,0.46072 -0.375,0.69036 -0.1254,0.22964 -0.2513,0.4588 -0.3777,0.68748 -0.1264,0.22867 -0.2532,0.45686 -0.3805,0.68455 -0.1273,0.22769 -0.255,0.45488 -0.3832,0.68157 -0.1282,0.22669 -0.2569,0.45287 -0.3859,0.67855 -0.1291,0.22567 -0.2587,0.45082 -0.3886,0.67546 -0.13,0.22464 -0.2604,0.44875 -0.3912,0.67234 -0.1308,0.22358 -0.2621,0.44663 -0.3938,0.66915 -0.1317,0.22252 -0.2638,0.4445 -0.3963,0.66593 -0.1325,0.22143 -0.2655,0.44232 -0.3989,0.66265 -0.1333,0.22033 -0.2671,0.44011 -0.4013,0.65932 -0.1341,0.21922 -0.2687,0.43787 -0.4037,0.65595 -0.135,0.21808 -0.2703,0.43559 -0.4061,0.65251 -0.1358,0.21693 -0.2719,0.43328 -0.4085,0.64904 -0.1366,0.21577 -0.2735,0.43094 -0.4108,0.64552 -0.1373,0.21457 -0.275,0.42856 -0.4131,0.64193 -0.1381,0.21338 -0.2765,0.42615 -0.4153,0.63831 -0.1388,0.21216 -0.278,0.42371 -0.4176,0.63463 -0.1395,0.21093 -0.2794,0.42123 -0.4197,0.63091 -0.1402,0.20967 -0.2809,0.41872 -0.4218,0.62712 -0.141,0.20841 -0.2823,0.41618 -0.424,0.62331 -0.1416,0.20712 -0.2836,0.4136 -0.426,0.61942 -0.1423,0.20583 -0.285,0.41099 -0.428,0.6155 -0.143,0.20451 -0.2863,0.40835 -0.43,0.61153 -0.1437,0.20317 -0.2876,0.40567 -0.4319,0.60749 -0.1443,0.20183 -0.289,0.40297 -0.4339,0.60343 -0.1449,0.20045 -0.2902,0.40022 -0.4357,0.5993 -0.1456,0.19907 -0.2914,0.39745 -0.4376,0.59512 -0.1462,0.19767 -0.2926,0.39464 -0.4394,0.5909 -0.1467,0.19625 -0.2937,0.3918 -0.4411,0.58662 -0.1473,0.19482 -0.2949,0.38893 -0.4428,0.5823 -0.1479,0.19337 -0.2961,0.38602 -0.4446,0.57792 -0.1484,0.19191 -0.2971,0.38308 -0.4461,0.5735 -0.149,0.19043 -0.2983,0.38011 -0.4478,0.56903 -1.2312,1.4408 -2.4623,2.8817 -3.7307,4.3662 -1.2147,1.424 -2.4294,2.848 -3.6808,4.3152 -13.659,14.9335 -29.8766,25.1157 -48.11181,33.121 -1.49278,0.673 -1.49278,0.673 -3.01556,1.3597 -20.76337,8.5616 -42.99615,9.5447 -65.07458,9.3802 -1.27528,-0.001 -2.55046,0 -3.86425,0 -21.53483,-0.049 -42.07659,-2.1293 -63.16713,-6.8436 -4.93268,-0.592 -8.41149,0.1416 -12.42588,3.1393 -29.72911,30.3376 -39.6716,67.6536 -40.62546,109.36798 -10.21013,-15.66748 -6.67419,-44.53809 -3.82843,-62.50249 5.40502,-21.5544 14.89291,-38.89579 29.42477,-55.32949 1.75084,-2.0759 1.75084,-2.0759 3.53697,-4.1937 19.74332,-21.9175 46.67622,-38.0038 73.25194,-49.8126 1.68349,-0.7484 1.68349,-0.7484 3.4011,-1.5119 27.85774,-12.1501 56.26279,-18.82 86.18594,-23.0364 -57.4542,-1.4473 -113.89774,12.8916 -159.27073,50.7843 -3.90569,3.222 -3.90569,3.222 -7.10522,4.8585 2.89151,-27.3728 12.90369,-52.1037 33.83881,-70.1608 39.10883,-29.91 83.14506,-28.4928 129.99255,-27.8418 28.41937,0.3653 54.26357,0.5073 81.02707,-10.3871 0.1941,-0.0787 0.3761,-0.15251 0.5471,-0.22169 0.171,-0.0692 0.331,-0.13375 0.4812,-0.19401 0.1502,-0.0603 0.2905,-0.11622 0.4222,-0.16819 0.1316,-0.052 0.2546,-0.0999 0.37,-0.1442 0.1155,-0.0443 0.2234,-0.0849 0.3249,-0.12207 0.1015,-0.0372 0.1966,-0.071 0.2865,-0.10177 0.09,-0.0308 0.1745,-0.0584 0.2551,-0.0833 0.081,-0.0249 0.157,-0.0471 0.2305,-0.0667 0.074,-0.0197 0.1441,-0.0369 0.2129,-0.052 0.069,-0.0151 0.1358,-0.028 0.2022,-0.039 0.066,-0.0111 0.132,-0.0203 0.1982,-0.028 0.066,-0.008 0.133,-0.0138 0.2013,-0.0187 0.068,-0.005 0.1384,-0.009 0.2113,-0.0114 0.073,-0.003 0.1484,-0.005 0.228,-0.006 0.08,-0.001 0.1631,-0.002 0.2518,-0.002 0.089,-3.1e-4 0.086,10e-4 0.1861,10e-4 z"
           fill="#90b837"
           id="path3433-3"
           style="stroke-width:1.61805" /></g></g></g></svg>
