<svg version="1.1" xmlns="http://www.w3.org/2000/svg" width="1024" height="1024">

<path d="M0 0 C0.77617676 0.0012085 1.55235352 0.00241699 2.35205078 0.00366211 C30.90029424 0.12420567 56.61284805 6.81019917 77.5625 27.25 C82.66882973 32.45159095 86.68775671 37.96167732 90.1875 44.375 C91.09628906 46.03015625 91.09628906 46.03015625 92.0234375 47.71875 C105.94972685 74.27859299 109.03049276 107.09325913 103.1875 136.375 C103.06391113 137.03967285 102.94032227 137.7043457 102.81298828 138.38916016 C100.76012482 149.24569749 97.25092479 158.58347657 92.1875 168.375 C91.51267578 169.82132813 91.51267578 169.82132813 90.82421875 171.296875 C81.7340183 189.85268241 62.65592865 203.85759892 43.77270508 211.16650391 C30.70801738 215.57033122 17.58507891 217.0160337 3.8605957 216.84155273 C1.35757089 216.81229628 -1.14335676 216.82107538 -3.64648438 216.83398438 C-13.4397851 216.82087356 -22.31374355 215.9259543 -31.8125 213.375 C-32.9466333 213.07505127 -34.0807666 212.77510254 -35.24926758 212.46606445 C-57.54837801 206.34345065 -75.2489274 192.68049901 -86.96484375 172.7890625 C-92.53234174 162.50155035 -96.40191198 151.82129323 -98.8125 140.375 C-98.98910156 139.56409912 -99.16570312 138.75319824 -99.34765625 137.91772461 C-101.19343761 128.38423067 -101.29611848 118.8645737 -101.3125 109.1875 C-101.3148465 108.30537842 -101.31719299 107.42325684 -101.3196106 106.5144043 C-101.2874708 77.24266962 -93.80983317 49.64715538 -73.33984375 27.8125 C-60.1218832 15.06442059 -44.58294359 6.80847304 -26.8125 2.375 C-26.11503662 2.18953613 -25.41757324 2.00407227 -24.69897461 1.81298828 C-16.55529702 -0.11155321 -8.31782354 -0.0238409 0 0 Z " fill="#515151" transform="translate(357.8125,375.625)" data-index="1" style="opacity: 1; visibility: visible;"></path>
<path d="M0 0 C1.12148438 -0.020625 2.24296875 -0.04125 3.3984375 -0.0625 C19.32764883 -0.13607603 34.88362345 4.80062721 46.54296875 16.02734375 C50.12878994 20.09986322 52.88655667 24.5078121 55.5 29.25 C55.96277344 30.08015625 56.42554688 30.9103125 56.90234375 31.765625 C63.59698844 45.0328236 65.16425986 59.88532518 64.96655273 74.53710938 C64.9374102 76.88222642 64.94605295 79.22508807 64.95898438 81.5703125 C64.93066208 102.32635677 60.64470749 123.69442153 46.3203125 139.59375 C30.00329943 154.44013099 10.63579934 155.1328486 -10.29394531 154.4453125 C-24.50028452 153.57986387 -36.88051778 146.56810384 -46.5 136.25 C-63.60936426 114.21782067 -65.07129382 81.97940511 -62.0390625 55.25 C-59.19012661 38.35748604 -51.9578685 22.30058367 -38.5 11.25 C-31.57152787 6.4776914 -24.68138329 3.17677505 -16.5 1.25 C-15.9121875 1.07871582 -15.324375 0.90743164 -14.71875 0.73095703 C-9.91666239 -0.30998846 -4.89277367 0.0218916 0 0 Z " fill="#FDFDFC" transform="translate(358.5,406.75)" data-index="2" style="opacity: 1; visibility: visible;"></path>
<path d="M0 0 C3.80424602 1.98877069 6.72882367 4.98515328 9.80078125 7.94140625 C10.39246094 8.50730469 10.98414063 9.07320313 11.59375 9.65625 C29.58998737 28.47611379 31.48421337 55.11005638 30.94140625 79.69921875 C30.6536216 86.33425362 29.52759637 92.52752151 27.80078125 98.94140625 C27.53394531 99.96492187 27.26710938 100.9884375 26.9921875 102.04296875 C21.70591089 119.85184729 11.11650802 135.58031817 -5.19921875 144.94140625 C-27.44104439 156.8094605 -55.2917491 160.44030683 -79.671875 153.140625 C-98.01810976 146.90331152 -113.4795885 136.81273754 -122.6328125 119.1796875 C-123.91009945 116.46213632 -125.07986271 113.72735905 -126.19921875 110.94140625 C-126.48539063 110.26078125 -126.7715625 109.58015625 -127.06640625 108.87890625 C-135.38158481 86.93369273 -135.33094317 56.52000256 -126.19921875 34.94140625 C-124.44151234 31.09272799 -122.45378371 27.52040174 -120.19921875 23.94140625 C-119.56242188 22.884375 -118.925625 21.82734375 -118.26953125 20.73828125 C-116.10750425 17.58631515 -114.27130977 15.22247982 -111.19921875 12.94140625 C-106.56149473 12.46574225 -102.6335249 13.64740944 -98.19921875 14.94140625 C-87.293626 17.25518123 -76.30488828 17.55748344 -65.19921875 17.94140625 C-67.15892872 19.90111622 -68.410684 20.58229835 -70.88671875 21.69140625 C-80.37323007 26.39177533 -85.90685618 33.44394545 -89.42578125 43.41796875 C-96.12835008 65.93667123 -94.90907105 89.95647115 -84.15234375 110.98828125 C-79.80183563 118.11302643 -71.13772793 122.97532687 -63.19921875 124.94140625 C-48.99187676 126.31011518 -35.06588102 126.16414487 -23.26171875 117.25390625 C-12.65711777 106.9117954 -9.21552266 91.47199814 -8.9609375 77.15234375 C-8.93050481 74.54042471 -8.90594367 71.92843183 -8.88671875 69.31640625 C-8.85771484 68.02605469 -8.82871094 66.73570312 -8.79882812 65.40625 C-8.71786441 53.03748616 -11.46505742 42.36071125 -18.19921875 31.94140625 C-18.75609375 31.05453125 -19.31296875 30.16765625 -19.88671875 29.25390625 C-25.82485373 23.31577127 -33.84634272 19.52260423 -42.01171875 17.81640625 C-42.80191406 17.64882813 -43.59210938 17.48125 -44.40625 17.30859375 C-44.99792969 17.18742187 -45.58960938 17.06625 -46.19921875 16.94140625 C-46.19921875 16.61140625 -46.19921875 16.28140625 -46.19921875 15.94140625 C-44.45511719 15.6475 -44.45511719 15.6475 -42.67578125 15.34765625 C-29.30901675 12.91631214 -17.03889638 8.8066811 -5.43359375 1.62890625 C-2.19921875 -0.05859375 -2.19921875 -0.05859375 0 0 Z " fill="#525252" transform="translate(736.19921875,436.05859375)" data-index="3"></path>
<path d="M0 0 C1.57631878 19.23108908 -7.70423965 41.55570484 -19.66796875 56.33203125 C-20.43753906 57.21246094 -21.20710937 58.09289062 -22 59 C-22.75925781 59.87011719 -23.51851562 60.74023438 -24.30078125 61.63671875 C-32.83889237 70.76173767 -42.97634366 76.98346618 -54.375 81.875 C-55.30807983 82.28625122 -55.30807983 82.28625122 -56.26000977 82.70581055 C-69.23893974 87.93733769 -83.13645471 88.53804849 -96.9375 88.4375 C-97.73461395 88.43678497 -98.53172791 88.43606995 -99.35299683 88.43533325 C-112.81417625 88.40560131 -125.6546378 87.13423672 -138.83813477 84.25366211 C-141.92148976 83.89187715 -144.09609627 84.34021625 -146.60546875 86.171875 C-165.18882819 104.7093496 -171.40376323 127.51087822 -172 153 C-178.38225554 143.42661669 -177.16163982 127.16834698 -175.3828125 116.19140625 C-172.0041946 103.02077628 -165.08371536 91.04163443 -156 81 C-154.90558594 79.7315625 -154.90558594 79.7315625 -153.7890625 78.4375 C-141.44770757 65.04498865 -124.61218515 55.21563923 -108 48 C-106.9476416 47.54270508 -106.9476416 47.54270508 -105.87402344 47.07617188 C-88.4604006 39.65193926 -70.70465421 35.57634095 -52 33 C-87.91408708 32.11563998 -123.196369 40.87727667 -151.55859375 64.03125 C-154 66 -154 66 -156 67 C-154.19252383 50.2741011 -147.93404725 35.16253003 -134.84765625 24.12890625 C-110.40110986 5.85268158 -82.87451523 6.71865862 -53.59057617 7.11645508 C-35.82593985 7.3396814 -19.67097416 7.4264532 -2.94140625 0.76953125 C-1 0 -1 0 0 0 Z " fill="#90B837" transform="translate(767,357)" data-index="4"></path>
<path d="M0 0 C2.33148087 2.33148087 1.17161327 8.14744953 1.18554688 11.25 C1.18546631 11.92675781 1.18538574 12.60351562 1.18530273 13.30078125 C1.18748367 15.35958694 1.20562031 17.41785212 1.22460938 19.4765625 C1.22654297 20.77078125 1.22847656 22.065 1.23046875 23.3984375 C1.23457764 24.59130371 1.23868652 25.78416992 1.24291992 27.01318359 C1 30 1 30 -1 33 C-2.75032844 32.85816304 -4.50025534 32.71136571 -6.25 32.5625 C-7.22453125 32.48128906 -8.1990625 32.40007812 -9.203125 32.31640625 C-11.57584136 32.04798443 -13.69519445 31.5820216 -16 31 C-24.91710343 29.92193914 -30.1456708 32.44073035 -37.2109375 37.62109375 C-45.27560392 44.20016372 -53.56558221 52.45952919 -54.89425659 63.17932129 C-55.32436416 69.32281647 -55.20348798 75.45650657 -55.08984375 81.609375 C-55.08600714 83.87143656 -55.08703048 86.13351106 -55.09266663 88.39556885 C-55.09645732 94.30720311 -55.04344077 100.2168603 -54.9753418 106.12805176 C-54.87607343 115.62931579 -54.86582856 125.13112209 -54.85257149 134.63282013 C-54.83997714 137.94925033 -54.80400794 141.26479161 -54.7641449 144.58099365 C-54.75112384 146.59793846 -54.73849319 148.61488584 -54.72631836 150.63183594 C-54.70060005 152.01872116 -54.70060005 152.01872116 -54.67436218 153.43362427 C-54.671492 154.69476547 -54.671492 154.69476547 -54.66856384 155.98138428 C-54.65599501 157.07961832 -54.65599501 157.07961832 -54.64317226 158.20003891 C-54.76092542 158.79402607 -54.87867857 159.38801323 -55 160 C-59.78687268 163.19124845 -65.28171241 162.33326278 -70.87890625 162.31567383 C-72.9927105 162.31251091 -75.10511846 162.33599013 -77.21875 162.36132812 C-78.56249824 162.36360095 -79.90625023 162.36430469 -81.25 162.36328125 C-82.47203125 162.36626221 -83.6940625 162.36924316 -84.953125 162.37231445 C-88 162 -88 162 -89.66662025 160.86816406 C-91.60820862 158.14785455 -91.37766516 156.05960105 -91.38095093 152.73706055 C-91.3894104 151.424664 -91.39786987 150.11226746 -91.40658569 148.76010132 C-91.40075255 147.30230589 -91.39460803 145.84451169 -91.38818359 144.38671875 C-91.39224788 142.85421372 -91.39758895 141.32171162 -91.40411377 139.78921509 C-91.41781034 135.62396204 -91.41247914 131.45893149 -91.40297651 127.29367447 C-91.395392 122.93885947 -91.40242216 118.58406378 -91.40713501 114.22924805 C-91.4125961 106.91549248 -91.40539172 99.60182773 -91.39111328 92.28808594 C-91.37478607 83.82709443 -91.38007433 75.36631977 -91.3965925 66.90533352 C-91.41019733 59.6466686 -91.41213195 52.38806903 -91.40427649 45.12939548 C-91.39959444 40.79158027 -91.39898967 36.45386705 -91.40888596 32.11605835 C-91.41753881 28.03829144 -91.41156473 23.96080467 -91.39420319 19.88306808 C-91.39022931 18.38465211 -91.39138776 16.88621264 -91.39799118 15.38780594 C-91.40616038 13.34619222 -91.39411064 11.3045271 -91.38095093 9.26293945 C-91.37981985 8.11920364 -91.37868877 6.97546783 -91.37752342 5.79707336 C-91 3 -91 3 -89.63120461 1.13381958 C-85.90236021 -1.45802989 -80.42722853 -0.46559363 -76.0625 -0.4375 C-74.41604492 -0.4674707 -74.41604492 -0.4674707 -72.73632812 -0.49804688 C-71.67994141 -0.49740234 -70.62355469 -0.49675781 -69.53515625 -0.49609375 C-68.569729 -0.49794678 -67.60430176 -0.4997998 -66.60961914 -0.50170898 C-63.26881781 0.1405725 -62.09436089 1.37257826 -60 4 C-58.54319419 9.14077023 -58.88555229 14.56834183 -58.9375 19.875 C-58.94201172 20.75414062 -58.94652344 21.63328125 -58.95117188 22.5390625 C-58.96287663 24.69273803 -58.98080931 26.84637817 -59 29 C-58.34 29 -57.68 29 -57 29 C-56.73058594 28.27039063 -56.46117187 27.54078125 -56.18359375 26.7890625 C-51.18476569 15.00964588 -40.80839766 4.04860125 -29.19140625 -1.1953125 C-19.94591416 -4.59027038 -8.91431132 -4.26913669 0 0 Z " fill="#525151" transform="translate(589,427)" data-index="5" style="opacity: 1;"></path>
<path d="M0 0 C5.28245585 3.11555052 8.49196861 7.24543707 10.44140625 13.09375 C11.20852773 22.13482464 11.447312 30.72801653 5.44140625 38.09375 C0.64351557 42.56635996 -4.24860173 43.43058078 -10.68359375 43.65625 C-17.99467599 43.37263043 -21.72209531 42.00691056 -26.87109375 36.71875 C-31.51886452 29.48888436 -31.42488652 21.4173053 -30.55859375 13.09375 C-28.52467625 7.33243863 -24.42863869 3.58747789 -19.55859375 0.09375 C-13.54748526 -1.90995283 -6.00141349 -2.1256915 0 0 Z " fill="#565758" transform="translate(622.55859375,621.90625)" data-index="6" style="opacity: 1;"></path>
<path d="M0 0 C2.64 0 5.28 0 8 0 C12.38023481 7.6409555 16.75381976 15.28338399 21 23 C23.07121435 20.33759996 24.82933656 17.6663733 26.4453125 14.70703125 C26.88230469 13.91232422 27.31929687 13.11761719 27.76953125 12.29882812 C28.44048828 11.0680957 28.44048828 11.0680957 29.125 9.8125 C30.02193477 8.1723544 30.92029633 6.53298798 31.8203125 4.89453125 C32.21492676 4.17112549 32.60954102 3.44771973 33.01611328 2.70239258 C34 1 34 1 35 0 C37.67058851 -0.14115161 40.32432238 -0.04247107 43 0 C41.65609689 3.56923093 40.06095422 6.79485961 38.14453125 10.08984375 C37.60505859 11.03923828 37.06558594 11.98863281 36.50976562 12.96679688 C35.37703792 14.94939623 34.23375385 16.92600104 33.08007812 18.89648438 C32.54447266 19.84716797 32.00886719 20.79785156 31.45703125 21.77734375 C30.96178955 22.63577881 30.46654785 23.49421387 29.95629883 24.37866211 C28.72678061 27.74892944 29.03483439 29.56183978 30 33 C31.3742981 35.89281418 31.3742981 35.89281418 33.16015625 38.73046875 C33.78857422 39.78041016 34.41699219 40.83035156 35.06445312 41.91210938 C35.72380859 42.99298828 36.38316406 44.07386719 37.0625 45.1875 C38.37173693 47.34411476 39.67541271 49.50411853 40.97265625 51.66796875 C41.55281494 52.61953857 42.13297363 53.5711084 42.73071289 54.55151367 C44 57 44 57 44 60 C39.1450098 61.1270513 39.1450098 61.1270513 36 60 C33.11135138 56.5529509 31.01753405 52.75385196 28.94042969 48.78808594 C28.04892889 47.09303095 27.10777275 45.42436464 26.1640625 43.7578125 C22 36.38761737 22 36.38761737 22 34 C21.34 34 20.68 34 20 34 C19.773125 34.79921875 19.54625 35.5984375 19.3125 36.421875 C17.64255118 40.97447358 15.37941415 45.0350378 13 49.25 C12.54882812 50.0646875 12.09765625 50.879375 11.6328125 51.71875 C8.2675047 57.7324953 8.2675047 57.7324953 6 60 C2.375 60.125 2.375 60.125 -1 60 C-0.47215383 55.57078775 0.57093025 52.53108142 2.90625 48.7421875 C3.48503906 47.78699219 4.06382812 46.83179688 4.66015625 45.84765625 C5.26730469 44.86667969 5.87445312 43.88570312 6.5 42.875 C7.70246387 40.91684759 8.90057335 38.95601277 10.09375 36.9921875 C10.62677734 36.12964355 11.15980469 35.26709961 11.70898438 34.37841797 C13.39364407 31.34168458 13.39364407 31.34168458 14 28 C12.84217332 25.18040835 12.84217332 25.18040835 11.03515625 22.24609375 C10.40029297 21.14458984 9.76542969 20.04308594 9.11132812 18.90820312 C8.4292545 17.75078949 7.74630165 16.59389356 7.0625 15.4375 C5.73270214 13.16991465 4.41352369 10.89686449 3.09765625 8.62109375 C2.50476807 7.6148999 1.91187988 6.60870605 1.30102539 5.57202148 C0 3 0 3 0 0 Z " fill="#94C22F" transform="translate(543,605)" data-index="7" style="opacity: 1;"></path>
<path d="M0 0 C4.35940007 2.51916152 6.96102547 5.5080764 8.5625 10.3125 C8.65517588 12.01882648 8.69248202 13.72866587 8.6875 15.4375 C8.69136719 16.77167969 8.69136719 16.77167969 8.6953125 18.1328125 C8.5625 20.3125 8.5625 20.3125 7.5625 21.3125 C5.41691173 21.40025605 3.26845579 21.41945219 1.12109375 21.41015625 C-0.18408203 21.40693359 -1.48925781 21.40371094 -2.83398438 21.40039062 C-4.2226569 21.39203401 -5.61132877 21.38356905 -7 21.375 C-8.39257656 21.36998666 -9.78515481 21.36542347 -11.17773438 21.36132812 C-14.5976987 21.34949434 -18.01757844 21.3330088 -21.4375 21.3125 C-20.98448551 22.92635236 -20.52327508 24.53790566 -20.05859375 26.1484375 C-19.80263428 27.0461084 -19.5466748 27.9437793 -19.28295898 28.86865234 C-18.51566654 31.47961685 -18.51566654 31.47961685 -16.5 33.9375 C-11.636183 36.12125457 -6.68279632 35.91236101 -1.4375 35.3125 C0.2385855 34.66988067 1.90747113 34.00755515 3.5625 33.3125 C5.875 33.6875 5.875 33.6875 7.5625 34.3125 C7.2325 35.9625 6.9025 37.6125 6.5625 39.3125 C-1.73697276 42.68855672 -10.24245294 43.98233656 -18.9375 41.1875 C-23.0955323 38.06897578 -26.58508481 34.23323287 -28.4375 29.3125 C-29.33780148 22.17784282 -30.10436462 12.90775333 -26.4375 6.5 C-19.59401837 -1.8536354 -10.04982796 -4.56640228 0 0 Z " fill="#565658" transform="translate(526.4375,622.6875)" data-index="8" style="opacity: 1;"></path>
<path d="M0 0 C4.80144556 1.72127294 6.82711067 3.42252997 9 8 C9.3984375 11.59375 9.3984375 11.59375 9.375 15.5 C9.38273438 16.7890625 9.39046875 18.078125 9.3984375 19.40625 C8.84863307 24.36527037 6.82492426 27.81256311 3 31 C-0.73579437 32.24526479 -4.12634003 32.65171217 -8 32 C-12.31756805 29.72312057 -14.5535009 26.593612 -16 22 C-16.67473885 16.51125894 -17.35450283 10.58851308 -14.7265625 5.56640625 C-10.37728141 0.46395697 -6.72410306 -0.68868839 0 0 Z " fill="#F9FAFA" transform="translate(616,627)" data-index="9" style="opacity: 1; visibility: visible;"></path>
<path d="M0 0 C1.1240625 -0.01675781 2.248125 -0.03351562 3.40625 -0.05078125 C6.76180105 0.34324179 8.15746981 0.91311228 10.5 3.3125 C10.75 6 10.75 6 10.5 8.3125 C9.51 8.1475 8.52 7.9825 7.5 7.8125 C0.32160816 6.71595182 0.32160816 6.71595182 -6.5 8.3125 C-6.5 10.2925 -6.5 12.2725 -6.5 14.3125 C-5.39140625 14.90417969 -4.2828125 15.49585938 -3.140625 16.10546875 C-1.67677463 16.90307953 -0.21324997 17.70128829 1.25 18.5 C1.97960937 18.88736328 2.70921875 19.27472656 3.4609375 19.67382812 C7.72450502 22.01879026 10.82104096 24.10763903 13.5 28.3125 C14.28971107 32.85333868 13.06465947 35.78845356 10.9609375 39.69921875 C7.93985738 43.03533129 4.44291048 44.1935647 0.0625 44.74609375 C-11.77551509 44.75907403 -11.77551509 44.75907403 -16.5 40.3125 C-16.17 38.6625 -15.84 37.0125 -15.5 35.3125 C-10.75 36.1875 -10.75 36.1875 -8.5 37.3125 C-6.42435324 37.51008231 -6.42435324 37.51008231 -4.125 37.5 C-3.35414063 37.51417969 -2.58328125 37.52835938 -1.7890625 37.54296875 C0.71834888 37.29051607 2.33261902 36.56443467 4.5 35.3125 C4.5 33.3325 4.5 31.3525 4.5 29.3125 C2.94539062 28.53326172 2.94539062 28.53326172 1.359375 27.73828125 C-0.01072854 27.03446094 -1.38050302 26.32999983 -2.75 25.625 C-3.43191406 25.28533203 -4.11382813 24.94566406 -4.81640625 24.59570312 C-9.00560682 22.41975914 -11.95785543 20.44027515 -14.5 16.3125 C-15.53746703 11.85749453 -15.08097786 8.28771283 -12.75 4.375 C-8.63066112 0.59893936 -5.57705746 0.01918712 0 0 Z " fill="#5B5C5C" transform="translate(750.5,620.6875)" data-index="10"></path>
<path d="M0 0 C2.91179676 1.16049871 4.77910559 2.77910559 7 5 C7.04080783 6.99958364 7.04254356 9.00045254 7 11 C4.28084472 10.45616894 2.17319196 9.6172185 -0.375 8.4375 C-4.04526132 6.98205155 -6.12009316 6.40957939 -10 7 C-13.13087573 8.85006293 -14.65476126 10.32596247 -16.3125 13.5625 C-17.54013284 19.70066419 -17.87292481 25.55581053 -15.75 31.5 C-13.39874036 34.86237202 -13.39874036 34.86237202 -10 37 C-3.7180593 37.70925137 -1.15606226 36.83706959 4 33 C4.99 33 5.98 33 7 33 C7.375 35.75 7.375 35.75 7 39 C0.47675362 44.36355813 -5.83584306 44.76775516 -14 44 C-19.84913732 41.2843291 -22.53324429 37.08018699 -25.25 31.375 C-26.96263724 23.66813244 -26.96597406 16.10944707 -23.34765625 8.9765625 C-17.3264648 0.1454817 -10.18817949 -0.93968646 0 0 Z " fill="#575858" transform="translate(720,621)" data-index="11" style="opacity: 1;"></path>
<path d="M0 0 C2.31 0 4.62 0 7 0 C7 3.96 7 7.92 7 12 C11.29 12 15.58 12 20 12 C20 13.65 20 15.3 20 17 C19 18 19 18 16.49609375 18.09765625 C15.48675781 18.08605469 14.47742188 18.07445312 13.4375 18.0625 C12.42558594 18.05347656 11.41367187 18.04445313 10.37109375 18.03515625 C9.19740234 18.01775391 9.19740234 18.01775391 8 18 C8.09348407 21.95141222 8.19956488 25.9022637 8.31738281 29.85302734 C8.37454036 31.85886971 8.42168596 33.86498918 8.46875 35.87109375 C8.50742187 37.12792969 8.54609375 38.38476562 8.5859375 39.6796875 C8.6173584 40.84226074 8.6487793 42.00483398 8.68115234 43.20263672 C8.72157869 46.13656482 8.72157869 46.13656482 11 48 C13.68839385 48.26991906 16.29141936 48.08737357 19 48 C19 49.98 19 51.96 19 54 C14.65270606 55.44909798 10.53126926 55.78773261 6 55 C3.12857567 52.89342459 1.58626606 50.17253212 0 47 C-0.08559118 44.82175039 -0.10713412 42.64084745 -0.09765625 40.4609375 C-0.09282227 38.50800781 -0.09282227 38.50800781 -0.08789062 36.515625 C-0.07953466 35.13541601 -0.07106971 33.75520768 -0.0625 32.375 C-0.05748501 30.98698074 -0.0529221 29.59895978 -0.04882812 28.2109375 C-0.03700976 24.80724868 -0.02053434 21.40364561 0 18 C-2.31 18 -4.62 18 -7 18 C-7 16.02 -7 14.04 -7 12 C-4.69 12 -2.38 12 0 12 C0 8.04 0 4.08 0 0 Z " fill="#5B5C5C" transform="translate(646,610)" data-index="12" style="opacity: 1;"></path>
<path d="M0 0 C2.31 0 4.62 0 7 0 C7 13.86 7 27.72 7 42 C4.69 42 2.38 42 0 42 C0 28.14 0 14.28 0 0 Z " fill="#4D4D4E" transform="translate(676,622)" data-index="13" style="opacity: 1;"></path>
<path d="M0 0 C2.85574601 1.33788101 3.86056686 2.48616606 6 5 C6 7.31 6 9.62 6 12 C-0.93 12 -7.86 12 -15 12 C-15 6 -15 6 -12.625 3.1875 C-8.58498455 -0.17917954 -5.18906257 -0.83601564 0 0 Z " fill="#F8F8F8" transform="translate(521,627)" data-index="14" style="opacity: 1; visibility: visible;"></path>
<path d="M0 0 C3.5 0.125 3.5 0.125 4.5 1.125 C4.625 4.625 4.625 4.625 4.5 8.125 C3.5 9.125 3.5 9.125 0.0625 9.375 C-1.113125 9.2925 -2.28875 9.21 -3.5 9.125 C-5.5 6.125 -5.5 6.125 -5.1875 3.5 C-4.11658202 -0.19953484 -4.0962579 0.14629493 0 0 Z " fill="#5D5C5C" transform="translate(679.5,603.875)" data-index="15"></path>
<path d="M0 0 C-1.63412443 1.70840281 -2.86906094 2.93453047 -5 4 C-7.1640625 3.66015625 -7.1640625 3.66015625 -9.625 3.0625 C-10.85089844 2.77052734 -10.85089844 2.77052734 -12.1015625 2.47265625 C-13.04128906 2.23869141 -13.04128906 2.23869141 -14 2 C-14 1.67 -14 1.34 -14 1 C-12.23103898 0.63659714 -10.45973374 0.28459117 -8.6875 -0.0625 C-7.70136719 -0.25972656 -6.71523438 -0.45695312 -5.69921875 -0.66015625 C-3 -1 -3 -1 0 0 Z " fill="#636463" transform="translate(704,451)" data-index="16"></path>
<path d="M0 0 C0.6875 1.75 0.6875 1.75 1 4 C0 6.25 0 6.25 -2 8 C-5.6875 8.25 -5.6875 8.25 -9 8 C-9 7.34 -9 6.68 -9 6 C-8.071875 5.7525 -7.14375 5.505 -6.1875 5.25 C-2.83541675 3.93545755 -1.8122197 3.02036616 0 0 Z " fill="#9DC744" transform="translate(551,657)" data-index="17"></path>
<path d="M0 0 C1.65 0.33 3.3 0.66 5 1 C4.34 2.98 3.68 4.96 3 7 C1.68 6.34 0.36 5.68 -1 5 C-0.67 3.35 -0.34 1.7 0 0 Z " fill="#686968" transform="translate(735,656)" data-index="18"></path>
<path d="M0 0 C2.31 0 4.62 0 7 0 C7 0.99 7 1.98 7 3 C4.36 3 1.72 3 -1 3 C-0.67 2.01 -0.34 1.02 0 0 Z " fill="#9DC846" transform="translate(580,662)" data-index="19"></path>
</svg>