<?xml version="1.0" encoding="UTF-8" standalone="no"?>
<!-- Created with Inkscape (http://www.inkscape.org/) -->

<svg
   version="1.1"
   id="svg2"
   width="1484.454"
   height="1489.4545"
   viewBox="0 0 1484.454 1489.4545"
   xml:space="preserve"
   xmlns="http://www.w3.org/2000/svg"
   xmlns:svg="http://www.w3.org/2000/svg"><defs
     id="defs6" /><g
     id="g8"
     transform="translate(-11.780246,32.16235)"><g
       id="g4044"
       transform="translate(13.108154,-74.541381)"><g
         id="g3023"
         transform="matrix(0.86534827,0,0,0.86534827,141.70335,212.3262)"><path
           style="fill:#505051;fill-opacity:1;stroke-width:0.727273"
           d="m 1060.0124,832.26616 c -2.252,-1.1106 -4.597,-4.7536 -4.597,-7.1417 0,-4.5546 4.1407,-8.4122 9.0294,-8.4122 3.2132,0 7.3233,3.4001 7.9603,6.5852 0.6215,3.1073 -1.1483,6.9077 -4.0369,8.6689 -2.8767,1.7539 -5.2358,1.8385 -8.3558,0.2998 z"
           id="path386" /><path
           style="fill:#505051;fill-opacity:1;stroke-width:0.727273"
           d="m 1058.3244,883.62144 v -42.18195 h 5.8182 5.8182 v 42.18195 42.1818 h -5.8182 -5.8182 z"
           id="path384" /><path
           style="fill:#505051;fill-opacity:1;stroke-width:0.727273"
           d="m 1015.1108,925.10914 c -4.1429,-1.6707 -7.9688,-5.0896 -9.9109,-8.8567 -2.3718,-4.6003 -2.8643,-11.1681 -2.8699,-38.2697 l -0.01,-26.36135 h -8.72738 -8.7273 v -5.0909 -5.091 h 8.7093 8.70938 l 0.1997,-11.81813 0.1999,-11.8182 6,-0.2112 6,-0.2113 v 12.0114 12.01143 l 11.8182,0.1998 11.8182,0.1999 v 4.7273 4.7272 l -11.8501,0.2 -11.8502,0.2 0.2138,28.16375 c 0.1943,25.6064 0.335,28.4074 1.5492,30.8483 0.7344,1.4765 2.1777,3.2366 3.2073,3.9113 2.6553,1.7398 9.9281,2.124 14.3324,0.7572 1.9814,-0.6149 3.6731,-1.0474 3.7594,-0.9611 0.086,0.086 0.2457,2.2835 0.3541,4.8824 0.1914,4.588 0.1349,4.7558 -1.9412,5.7659 -1.3064,0.6356 -5.1093,1.1353 -9.7747,1.2845 -6.3166,0.2019 -8.2547,-0.01 -11.2137,-1.1985 z"
           id="path382" /><path
           style="fill:#505051;fill-opacity:1;stroke-width:0.727273"
           d="m 1210.3189,927.27474 c -9.8054,-1.2664 -19.3248,-6.2961 -24.656,-13.0272 l -2.1843,-2.7579 4.6389,-3.4062 4.639,-3.4062 3.7953,4.013 c 6.6351,7.0155 15.726,10.0597 25.144,8.4197 6.289,-1.0952 10.0138,-3.0495 12.2484,-6.4261 4.8058,-7.2621 2.631,-14.6122 -5.5501,-18.7579 -1.9576,-0.992 -8.6255,-3.2445 -14.8177,-5.0058 -13.3509,-3.7974 -16.9173,-5.4563 -20.8105,-9.6799 -3.9349,-4.2689 -4.9869,-7.1144 -4.9869,-13.4892 0,-6.1376 0.8455,-9.17155 3.6311,-13.03075 4.3552,-6.0335 10.9878,-9.4397 21.3108,-10.9442 4.7588,-0.6936 6.6397,-0.6379 11.3506,0.3362 9.3646,1.9363 16.9564,6.3278 21.1706,12.246 l 1.4027,1.97 -4.384,3.40465 -4.3841,3.4045 -3.1592,-3.5137 c -1.7375,-1.93265 -4.9095,-4.48205 -7.0488,-5.66535 -3.5417,-1.9591 -4.5079,-2.1519 -10.7988,-2.1546 -5.8037,0 -7.4694,0.2731 -10.4116,1.7216 -6.5832,3.2413 -9.2288,10.13625 -6.175,16.09375 1.3846,2.7013 2.4844,3.6699 6.2987,5.5475 2.5417,1.2512 7.2871,2.8474 10.5454,3.5473 22.646,4.8641 31.7173,12.8213 30.8662,27.0748 -0.7748,12.9763 -10.0126,21.5359 -25.2865,23.4298 -6.6442,0.824 -6.4504,0.8231 -12.3882,0.056 z"
           id="path380" /><path
           style="fill:#505051;fill-opacity:1;stroke-width:0.727273"
           d="m 1134.3245,927.28474 c -22.1629,-2.5599 -37.6127,-20.4939 -37.6127,-43.6606 0,-24.6745 16.4449,-42.24675 41.249,-44.07625 11.0245,-0.8133 24.7457,3.9177 31.5434,10.8756 l 3.1796,3.2547 -4.5764,3.36905 -4.5763,3.3689 -3.3306,-3.2691 c -10.9234,-10.72175 -29.5659,-10.03895 -41.2094,1.5094 -15.4539,15.3275 -11.7585,44.8861 6.8798,55.0304 5.1243,2.789 12.5904,4.3548 18.1269,3.8016 6.6644,-0.6658 11.6331,-2.7974 16.3771,-7.0256 l 4.1669,-3.714 4.164,3.0999 c 2.2903,1.7049 4.3277,3.2457 4.5277,3.424 0.8861,0.7902 -8.1709,7.8035 -13.4545,10.4187 -4.5523,2.2533 -7.1631,3.0328 -12,3.5826 -6.6889,0.7603 -6.9625,0.7606 -13.4545,0.011 z"
           id="path378" /><path
           id="path374"
           style="fill:#505051;fill-opacity:1;stroke-width:0.727273"
           d="m 928.5322,839.4021 c -0.73392,0.0125 -1.4609,0.0461 -2.17969,0.0996 -24.88747,1.8539 -41.8457,19.74818 -41.8457,44.15625 0,23.52898 15.49167,40.68814 39.63476,43.89844 3.0294,0.4028 13.14947,-0.25513 17.0918,-1.11133 4.82087,-1.0469 14.40459,-5.95151 18.39063,-9.41211 4.17803,-3.62739 8.44808,-9.73546 10.92578,-15.63086 7.24129,-17.23028 2.62663,-39.19402 -10.70313,-50.94726 C 952.044,843.575 939.54099,839.21429 928.5322,839.4021 Z m 0.66406,10.41407 c 7.609,0.0102 8.32096,0.14278 13.34766,2.48828 3.88857,1.8145 6.37468,3.62769 9.28711,6.77343 6.87723,7.4282 9.40164,14.16497 9.33984,24.91016 -0.0369,6.39649 -0.3193,7.9771 -2.34766,13.12109 -4.11345,10.43189 -12.12686,17.43415 -22.45703,19.62305 -5.98806,1.2687 -8.64096,1.2625 -14.60742,-0.0332 -12.73708,-2.7661 -21.82727,-13.25109 -24.25976,-27.98047 -2.41746,-14.63829 5.15587,-29.76783 18.10546,-36.16797 5.41729,-2.6767 5.75093,-2.74437 13.5918,-2.73437 z" /><path
           id="path370"
           style="fill:#505051;fill-opacity:1;stroke-width:0.727273"
           d="m 733.54392,839.43531 c -14.12701,0.0446 -28.7649,7.97824 -35.81641,19.6914 -5.50429,9.14299 -7.74814,21.27436 -6.01172,32.49805 1.06386,6.87659 5.9523,17.21136 10.57032,22.34766 6.15079,6.84119 15.93008,12.02654 24.92773,13.21484 16.33587,2.1574 33.86529,-4.25798 41.69922,-15.25977 l 1.43555,-2.01757 -4.26563,-3.28125 -4.26562,-3.28321 -4.84571,4.72852 c -5.67365,5.53579 -10.37801,7.91641 -17.98828,9.09961 -4.61265,0.7171 -6.28099,0.66051 -10.90039,-0.36719 -12.03008,-2.6764 -21.35435,-12.28307 -23.9043,-24.62695 -0.47394,-2.2942 -0.65702,-4.50241 -0.40625,-4.90821 0.29788,-0.4819 12.38691,-0.73828 34.87305,-0.73828 h 34.41797 l 0.34766,-1.82031 c 0.19139,-1.0011 0.0611,-4.95426 -0.29102,-8.78516 -1.95409,-21.25752 -15.68708,-34.85373 -36.75977,-36.39453 -0.93485,-0.0684 -1.8746,-0.10063 -2.8164,-0.0977 z m -0.31055,10.39257 c 8.0421,0.0133 11.62368,0.92063 16.46094,4.16993 6.05197,4.06534 10.17459,11.40612 11.42969,20.35351 l 0.38086,2.72656 h -28.7754 -28.77539 l 0.34766,-3.09375 c 0.91192,-8.09049 8.4785,-17.76777 17.06641,-21.82617 4.50773,-2.1302 5.58156,-2.34008 11.86523,-2.33008 z" /><path
           style="fill:#8eb634;fill-opacity:1;stroke-width:0.727273"
           d="m 707.77891,992.10974 c 0,-0.32 1.06363,-1.5628 2.36364,-2.7618 1.29999,-1.1992 3.23157,-3.1412 4.29238,-4.3157 1.0608,-1.1745 3.46483,-3.4446 5.34224,-5.0446 1.87743,-1.6 5.98033,-5.3097 9.11757,-8.2438 3.13722,-2.9341 7.27867,-6.327 9.2032,-7.5399 3.37307,-2.1256 5.05007,-3.467 6.96258,-5.5695 3.55961,-3.913 7.08041,-6.9046 9.16525,-7.7876 2.60485,-1.1032 7.54656,-5.6963 8.28422,-7.6997 0.24384,-0.6622 1.46826,-1.4292 2.72091,-1.7043 1.33963,-0.2943 2.58515,-1.1755 3.02452,-2.1398 0.41084,-0.9016 2.0128,-2.1978 3.55991,-2.8805 1.5471,-0.6824 3.79098,-2.4759 4.98643,-3.9852 1.19543,-1.5094 3.5816,-3.6907 5.30261,-4.8475 1.72099,-1.1568 4.35731,-3.1768 5.85844,-4.4891 1.50116,-1.3121 3.05571,-2.3857 3.45456,-2.3857 0.39885,0 0.72518,-0.4756 0.72518,-1.0569 0,-0.5814 0.82372,-1.645 1.83052,-2.3637 5.79282,-4.1351 10.22775,-7.7726 11.17882,-9.1689 0.59658,-0.8757 1.47371,-1.8317 1.9492,-2.1244 1.19375,-0.7347 10.03606,-9.3646 11.17174,-10.9034 0.78408,-1.0623 0.52967,-1.9611 -1.6669,-5.889 -1.42571,-2.5493 -3.13954,-5.0895 -3.80852,-5.6447 -1.67025,-1.3862 -4.65487,-6.2183 -4.65487,-7.5362 0,-0.5939 -0.65455,-1.4301 -1.45455,-1.8583 -0.8,-0.4281 -1.45454,-1.2421 -1.45454,-1.8087 0,-0.5667 -1.14546,-2.1427 -2.54546,-3.5025 -1.4,-1.3596 -2.54545,-2.9924 -2.54545,-3.6284 0,-0.636 -0.33453,-1.3631 -0.74341,-1.6158 -1.31514,-0.8128 -6.52932,-8.25645 -6.52932,-9.32115 0,-1.652 -2.79999,-7.517 -4.64391,-9.7274 -0.93248,-1.1179 -2.13679,-3.3415 -2.67625,-4.9415 -0.53947,-1.6 -1.40403,-3.4257 -1.92125,-4.0572 -0.51722,-0.63153 -0.94041,-2.34973 -0.94041,-3.81823 0,-2.3722 0.20541,-2.6701 1.84154,-2.6701 3.59737,0 8.48826,2.7633 15.04922,8.50263 1.48991,1.3033 3.5208,2.5734 4.51307,2.8225 1.54395,0.3875 5.50526,4.4954 5.50526,5.709 0,0.8766 2.65245,3.5004 4.54546,4.4964 1.1,0.5788 2,1.4816 2,2.0062 0,1.0751 5.4141,7.00885 6.39512,7.00885 1.1072,0 5.96851,5.2838 5.96851,6.4872 0,0.6346 0.98182,2.0806 2.18182,3.2132 1.20001,1.1325 2.18183,2.4866 2.18183,3.009 0,0.5543 1.12444,1.0809 2.70093,1.265 2.17718,0.2541 2.98822,-0.021 4.18182,-1.4183 0.81448,-0.9536 2.87178,-3.1446 4.57178,-4.869 1.70001,-1.7245 3.09091,-3.3759 3.09091,-3.6699 0,-0.294 0.81818,-1.5069 1.81818,-2.6953 1,-1.1884 1.81819,-2.5966 1.81819,-3.1292 0,-0.5326 1.47971,-2.78495 3.28821,-5.00515 2.4851,-3.0507 3.90809,-4.1529 5.82611,-4.5127 3.2496,-0.6096 4.84829,0.601 4.26117,3.2265 -1.14677,5.12835 -7.07222,18.67215 -10.05928,22.99265 -1.96101,2.8363 -3.08618,4.7357 -3.99424,6.7424 -0.40728,0.9 -1.04044,1.6363 -1.40692,1.6363 -0.36654,0 -0.86807,0.8033 -1.11447,1.7851 -0.4901,1.9526 1.78589,7.0643 3.82669,8.5946 0.65499,0.4912 1.75127,2.1056 2.43623,3.5874 0.68487,1.482 2.1576,3.1683 3.27272,3.7473 1.82866,0.9498 5.30015,4.8395 5.30015,5.9389 0,0.2417 0.80327,1.3186 1.78509,2.3931 4.85796,5.3166 6.94218,8.0539 6.94218,9.1173 0,0.643 1.58495,2.7375 3.52211,4.6544 1.93716,1.9168 4.44066,4.951 5.56327,6.7426 1.12262,1.7916 2.26735,3.4211 2.54371,3.6211 0.73077,0.5288 2.91448,7.2712 2.92735,9.0386 0.007,0.8288 0.48254,2.8159 1.05898,4.4159 1.09222,3.0317 1.43062,8.1412 0.6704,10.1223 -0.28851,0.7519 -1.34131,1.1504 -3.03927,1.1504 -2.92822,0 -12.51927,-2.8875 -12.51927,-3.769 0,-0.3156 -2.04546,-1.5924 -4.54546,-2.8374 -4.048,-2.016 -10,-7.1861 -10,-8.6864 0,-0.31 -1.12545,-1.2276 -2.50109,-2.0392 -1.87047,-1.1036 -2.71578,-2.2677 -3.3528,-4.6172 -1.3704,-5.0546 -2.06742,-6.0499 -5.28385,-7.5449 -2.39229,-1.1119 -3.24022,-2.0157 -3.96015,-4.2208 -0.50385,-1.5433 -2.30385,-4.1615 -4,-5.8182 -1.69614,-1.6568 -3.68749,-4.201 -4.42509,-5.654 -0.73767,-1.4529 -2.12749,-2.9999 -3.08851,-3.4378 -1.55724,-0.7095 -2.00465,-0.5028 -4.11331,1.9001 -5.86893,6.6878 -16.84859,16.6595 -20.25972,18.3997 -1.55852,0.7952 -2.83366,1.9044 -2.83366,2.4651 0,1.2568 -5.34957,5.9247 -8.51872,7.4333 -1.28529,0.6119 -2.52932,1.7188 -2.7645,2.4598 -0.23518,0.7409 -0.86018,1.1812 -1.38887,0.9783 -0.54917,-0.2107 -2.39074,1.3044 -4.29573,3.5342 -1.83397,2.1467 -4.24828,4.3655 -5.36515,4.9308 -1.11686,0.5652 -2.52157,1.4376 -3.12157,1.9386 -0.6,0.501 -2.27957,1.9012 -3.73238,3.1116 -1.45281,1.2104 -3.36936,2.2007 -4.25898,2.2007 -1.64072,0 -6.85813,3.6334 -8.59533,5.9858 -0.52269,0.7078 -1.50555,1.2869 -2.18415,1.2869 -0.6786,0 -2.84492,1.1455 -4.81405,2.5455 -1.96913,1.4 -4.02381,2.5454 -4.56596,2.5454 -0.54214,0 -1.16802,0.4751 -1.39083,1.0557 -0.22282,0.5807 -1.60347,1.4485 -3.06809,1.9285 -1.46464,0.4801 -3.64478,1.6034 -4.84478,2.4963 -1.20001,0.8929 -2.91995,1.8477 -3.82211,2.1217 -0.90215,0.2741 -2.53851,1.2442 -3.63636,2.1556 -1.90061,1.5781 -5.63234,3.0155 -6.99619,2.6948 -0.35006,-0.082 -1.16825,0.3252 -1.81818,0.9055 -1.84126,1.644 -8.1648,4.8237 -9.59306,4.8237 -0.70709,0 -1.3947,0.2455 -1.52804,0.5455 -0.36767,0.8273 -5.69697,3.1525 -5.69697,2.4857 z"
           id="path234" /></g><g
         id="g3031"
         transform="matrix(1.0617351,0,0,1.0617351,4.0311086,51.03816)"><path
           style="fill:#505051;fill-opacity:1;stroke-width:0.727273"
           d="M 691.05163,650.53314 V 512.71497 h 33.09091 33.09091 v 22.90909 c 0,12.6 0.24545,22.90688 0.54545,22.90418 0.3,0 1.82415,-2.3754 3.38699,-5.27268 12.33889,-22.87479 33.76007,-40.51109 55.77391,-45.91929 10.53372,-2.58785 24.99641,-3.36472 33.87044,-1.81937 l 4.60502,0.80193 v 31.61071 c 0,29.7587 -0.0745,31.5895 -1.27272,31.2482 -8.33469,-2.3743 -27.90749,-3.049 -37.27273,-1.2848 -11.68458,2.2011 -20.61229,6.3163 -29.91016,13.7871 -7.52312,6.0447 -12.62071,12.306 -17.27353,21.2167 -4.33971,8.3112 -6.32267,14.0163 -8.16112,23.4804 -1.30521,6.719 -1.38246,11.4432 -1.38246,84.5454 v 77.42882 h -34.54545 -34.54546 z"
           id="path396" /><path
           id="path392"
           style="fill:#505051;fill-opacity:1;stroke-width:0.727273"
           d="m 1085.4376,516.023 c -11.3167,9.34667 -23.9777,16.47454 -37.7774,22.39649 -1.5271,0.673 -1.5281,0.67267 -3.0859,1.35937 -21.2408,8.56159 -43.9843,9.54536 -66.57034,9.38086 -1.3046,-10e-4 -2.60912,0 -3.95312,0 -22.02998,-0.049 -43.04367,-2.12945 -64.61914,-6.84375 -0.51426,-0.0603 -1.02585,-0.12511 -1.52687,-0.17852 -0.50103,-0.0534 -0.99148,-0.0955 -1.46345,-0.11037 -0.47197,-0.0149 -0.92547,-0.003 -1.35257,0.0526 -0.4271,0.0552 -0.77184,0.19795 -1.10577,0.38286 l -0.41886,0.38054 -0.38867,0.4043 -0.38867,0.40429 -0.38868,0.4043 -0.38867,0.4043 -0.38867,0.4043 -0.38867,0.40429 -0.38868,0.4043 c -12.43824,12.94175 -24.50043,33.40498 -30.3981,51.79315 -11.61663,36.21923 -8.65357,80.11966 7.59375,112.4961 12.00455,23.92207 27.03454,41.18261 48.26758,55.42968 8.03365,5.39039 22.88316,12.92051 32.34765,16.4043 11.31858,4.1662 27.85279,7.69783 42.21485,9.01563 6.4951,0.59599 28.8927,-0.2643 36.3633,-1.39649 23.7717,-3.6023 47.1797,-12.88272 65.9648,-26.1543 29.3925,-20.76586 50.0026,-52.86052 56.875,-88.56445 5.1434,-26.72125 3.0605,-57.63795 -5.4844,-81.4082 -2.2709,-6.31729 -9.4063,-20.7507 -13.5605,-27.42969 -13.1515,-21.14437 -32.595,-38.3992 -55.5898,-49.83594 z m -71.5176,39.83594 c 7.6668,0.008 15.2738,0.90254 22.0117,2.74805 26.3892,7.22788 46.7852,30.09983 54.0469,60.60937 3.5276,14.82067 3.9674,28.54511 1.3965,43.48828 -6.4591,37.54293 -30.6296,64.24752 -63.3262,69.9668 v -0.002 c -7.8029,1.3683 -22.5119,1.3666 -30.00002,0 -32.3741,-5.90851 -55.55203,-31.2785 -63.07812,-69.04492 -1.81979,-9.13289 -1.83205,-29.45296 -0.0234,-38.51954 5.8453,-29.30304 21.04459,-50.82604 43.9082,-62.16992 9.34392,-4.63595 22.28634,-7.08904 35.06444,-7.07617 z" /><path
           d="m 1029.6733,750.78106 c 0.02,0.24588 0.038,0.49243 0.056,0.73892 0.018,0.24649 0.034,0.49329 0.05,0.74037 0.015,0.24708 0.03,0.49446 0.043,0.74212 0.013,0.24766 0.026,0.4956 0.037,0.74383 0.011,0.24822 0.022,0.49671 0.031,0.74548 0.01,0.24876 0.017,0.49779 0.025,0.74708 0.01,0.24929 0.013,0.49884 0.018,0.74864 0.01,0.2498 0.01,0.49985 0.013,0.75015 0,0.25029 0.01,0.50083 0.01,0.7516 0,0.25077 0,0.50177 4e-4,0.753 -9e-4,0.25123 0,0.50269 -0.01,0.75436 0,0.25168 -0.01,0.50357 -0.011,0.75567 0,0.2521 -0.011,0.50441 -0.018,0.75693 -0.01,0.25251 -0.015,0.50522 -0.023,0.75813 -0.01,0.2529 -0.019,0.506 -0.029,0.75928 -0.011,0.25328 -0.022,0.50675 -0.035,0.76039 -0.013,0.25365 -0.026,0.50747 -0.041,0.76145 -0.014,0.25399 -0.03,0.50815 -0.047,0.76246 -0.016,0.25432 -0.034,0.50879 -0.052,0.76341 -0.018,0.25463 -0.038,0.50941 -0.058,0.76433 -0.02,0.25491 -0.041,0.50998 -0.063,0.76517 -0.022,0.2552 -0.045,0.51053 -0.069,0.76599 -0.024,0.25546 -0.049,0.51104 -0.074,0.76674 -0.026,0.25571 -0.052,0.51153 -0.08,0.76746 -0.028,0.25593 -0.056,0.51196 -0.085,0.76811 -0.029,0.25614 -0.06,0.51238 -0.091,0.76871 -0.031,0.25634 -0.063,0.51277 -0.096,0.76928 -0.033,0.25651 -0.067,0.51311 -0.1016,0.76979 -0.035,0.25667 -0.071,0.51342 -0.107,0.77024 -0.037,0.25682 -0.074,0.51371 -0.1123,0.77065 -0.038,0.25695 -0.077,0.51396 -0.1175,0.77102 -0.04,0.25705 -0.081,0.51416 -0.1226,0.77132 -0.042,0.25715 -0.084,0.51435 -0.1279,0.77158 -0.043,0.25723 -0.088,0.5145 -0.133,0.77179 -0.045,0.25729 -0.091,0.51461 -0.138,0.77195 -0.047,0.25734 -0.095,0.51469 -0.1432,0.77206 -0.048,0.25737 -0.098,0.51474 -0.1481,0.77212 -0.05,0.25738 -0.1013,0.51476 -0.1531,0.77213 -0.052,0.25738 -0.1046,0.51474 -0.1581,0.7721 -0.053,0.25735 -0.1078,0.51468 -0.1629,0.772 -0.055,0.25731 -0.1111,0.5146 -0.1678,0.77186 -0.057,0.25726 -0.1143,0.51449 -0.1727,0.77168 -0.058,0.25719 -0.1175,0.51433 -0.1774,0.77143 -0.06,0.2571 -0.1207,0.51416 -0.1822,0.77115 -0.062,0.257 -0.1238,0.51394 -0.1869,0.77081 -0.063,0.25687 -0.1269,0.51368 -0.1916,0.77042 -0.065,0.25674 -0.13,0.5134 -0.1962,0.76998 -0.066,0.25659 -0.1331,0.51309 -0.2008,0.7695 -0.068,0.25641 -0.1361,0.51273 -0.2054,0.76896 -0.069,0.25622 -0.1392,0.51235 -0.2099,0.76837 -0.071,0.25602 -0.1422,0.51193 -0.2144,0.76773 -0.072,0.2558 -0.1451,0.51148 -0.2188,0.76704 -0.074,0.25556 -0.1481,0.511 -0.2233,0.76631 -0.075,0.25531 -0.151,0.51049 -0.2276,0.76552 -0.077,0.25504 -0.154,0.50994 -0.232,0.76469 -0.078,0.25475 -0.1568,0.50935 -0.2363,0.7638 -0.08,0.25444 -0.1597,0.50873 -0.2406,0.76286 -0.081,0.25412 -0.1624,0.50808 -0.2447,0.76187 -0.082,0.25379 -0.1653,0.50741 -0.249,0.76084 -0.084,0.25344 -0.1681,0.50669 -0.2531,0.75976 -0.085,0.25306 -0.1708,0.50594 -0.2573,0.75861 -0.086,0.25268 -0.1735,0.50516 -0.2613,0.75744 -0.088,0.25227 -0.1762,0.50434 -0.2653,0.7562 -0.089,0.25185 -0.179,0.50349 -0.2694,0.75491 -0.091,0.25142 -0.1816,0.50261 -0.2733,0.75358 -0.092,0.25096 -0.1842,0.50169 -0.2773,0.75219 -0.093,0.25049 -0.1868,0.50075 -0.2811,0.75076 -0.094,0.25 -0.1894,0.49976 -0.2851,0.74927 -0.096,0.2495 -0.1919,0.49875 -0.2888,0.74774 -0.097,0.24898 -0.1944,0.49771 -0.2926,0.74615 -0.098,0.24845 -0.1969,0.49663 -0.2963,0.74453 -0.099,0.24789 -0.1994,0.49551 -0.3001,0.74283 -0.1006,0.24733 -0.2018,0.49437 -0.3037,0.74111 -0.1018,0.24674 -0.2043,0.49318 -0.3073,0.73932 -0.1031,0.24614 -0.2067,0.49197 -0.311,0.73749 -0.1042,0.24552 -0.209,0.49072 -0.3144,0.7356 -0.1055,0.24488 -0.2115,0.48944 -0.318,0.73367 -0.1066,0.24423 -0.2138,0.48813 -0.3215,0.73169 -0.1078,0.24356 -0.2161,0.48679 -0.325,0.72966 -0.1088,0.24287 -0.2183,0.4854 -0.3283,0.72757 -0.11,0.24218 -0.2206,0.48399 -0.3317,0.72545 -0.1111,0.24145 -0.2228,0.48254 -0.335,0.72326 -0.1123,0.24071 -0.225,0.48106 -0.3384,0.72103 -0.1133,0.23996 -0.2271,0.47955 -0.3415,0.71874 -0.1144,0.2392 -0.2294,0.47801 -0.3448,0.71642 -0.1155,0.23841 -0.2315,0.47642 -0.348,0.71403 -0.1165,0.23761 -0.2336,0.47481 -0.3511,0.7116 -0.1176,0.23679 -0.2357,0.47317 -0.3543,0.70913 -0.1185,0.23595 -0.2376,0.47148 -0.3573,0.70659 -0.1196,0.2351 -0.2397,0.46977 -0.3603,0.70401 -0.1206,0.23423 -0.2417,0.46803 -0.3633,0.70138 -0.1216,0.23335 -0.2437,0.46625 -0.3663,0.6987 -0.1226,0.23245 -0.2456,0.46444 -0.3692,0.69597 -0.1235,0.23153 -0.2475,0.46259 -0.372,0.69319 -0.1245,0.23059 -0.2495,0.46072 -0.375,0.69036 -0.1254,0.22964 -0.2513,0.4588 -0.3777,0.68748 -0.1264,0.22867 -0.2532,0.45686 -0.3805,0.68455 -0.1273,0.22769 -0.255,0.45488 -0.3832,0.68157 -0.1282,0.22669 -0.2569,0.45287 -0.3859,0.67855 -0.1291,0.22567 -0.2587,0.45082 -0.3886,0.67546 -0.13,0.22464 -0.2604,0.44875 -0.3912,0.67234 -0.1308,0.22358 -0.2621,0.44663 -0.3938,0.66915 -0.1317,0.22252 -0.2638,0.4445 -0.3963,0.66593 -0.1325,0.22143 -0.2655,0.44232 -0.3989,0.66265 -0.1333,0.22033 -0.2671,0.44011 -0.4013,0.65932 -0.1341,0.21922 -0.2687,0.43787 -0.4037,0.65595 -0.135,0.21808 -0.2703,0.43559 -0.4061,0.65251 -0.1358,0.21693 -0.2719,0.43328 -0.4085,0.64904 -0.1366,0.21577 -0.2735,0.43094 -0.4108,0.64552 -0.1373,0.21457 -0.275,0.42856 -0.4131,0.64193 -0.1381,0.21338 -0.2765,0.42615 -0.4153,0.63831 -0.1388,0.21216 -0.278,0.42371 -0.4176,0.63463 -0.1395,0.21093 -0.2794,0.42123 -0.4197,0.63091 -0.1402,0.20967 -0.2809,0.41872 -0.4218,0.62712 -0.141,0.20841 -0.2823,0.41618 -0.424,0.62331 -0.1416,0.20712 -0.2836,0.4136 -0.426,0.61942 -0.1423,0.20583 -0.285,0.41099 -0.428,0.6155 -0.143,0.20451 -0.2863,0.40835 -0.43,0.61153 -0.1437,0.20317 -0.2876,0.40567 -0.4319,0.60749 -0.1443,0.20183 -0.289,0.40297 -0.4339,0.60343 -0.1449,0.20045 -0.2902,0.40022 -0.4357,0.5993 -0.1456,0.19907 -0.2914,0.39745 -0.4376,0.59512 -0.1462,0.19767 -0.2926,0.39464 -0.4394,0.5909 -0.1467,0.19625 -0.2937,0.3918 -0.44107,0.58662 -0.14733,0.19482 -0.29495,0.38893 -0.44284,0.5823 -0.1479,0.19337 -0.29608,0.38602 -0.44453,0.57792 -0.14845,0.19191 -0.29718,0.38308 -0.44617,0.5735 -0.14899,0.19043 -0.29826,0.38011 -0.44778,0.56903 -1.23119,1.4408 -2.46229,2.8817 -3.73072,4.3662 -1.21466,1.424 -2.42933,2.848 -3.68075,4.3152 -13.65903,14.9335 -29.87662,25.1157 -48.11182,33.121 -1.49278,0.673 -1.49278,0.673 -3.01556,1.3597 -20.76337,8.5616 -42.99615,9.5447 -65.07458,9.3802 -1.27528,-10e-4 -2.55046,0 -3.86425,0 -21.53483,-0.049 -42.07659,-2.1293 -63.16713,-6.8436 -4.93268,-0.592 -8.41149,0.1416 -12.42588,3.1393 -29.72911,30.3376 -39.6716,67.6536 -40.62546,109.36798 -10.21013,-15.66748 -6.67419,-44.53809 -3.82843,-62.50249 5.40502,-21.5544 14.89291,-38.89579 29.42477,-55.32949 1.75084,-2.0759 1.75084,-2.0759 3.53697,-4.1937 19.74332,-21.9175 46.67622,-38.0038 73.25194,-49.8126 1.68349,-0.7484 1.68349,-0.7484 3.4011,-1.5119 27.85774,-12.1501 56.26279,-18.82 86.18594,-23.0364 -57.4542,-1.4473 -113.89774,12.8916 -159.27073,50.7843 -3.90569,3.222 -3.90569,3.222 -7.10522,4.8585 2.89151,-27.3728 12.90369,-52.1037 33.83881,-70.1608 39.10883,-29.91 83.14506,-28.4928 129.99255,-27.8418 28.41933,0.3653 54.26356,0.5073 81.02704,-10.3871 0.1941,-0.0787 0.3761,-0.15251 0.5471,-0.22169 0.171,-0.0692 0.331,-0.13375 0.4812,-0.19401 0.1502,-0.0603 0.2905,-0.11622 0.4222,-0.16819 0.1316,-0.052 0.2546,-0.0999 0.37,-0.1442 0.1155,-0.0443 0.2234,-0.0849 0.3249,-0.12207 0.1015,-0.0372 0.1966,-0.071 0.2865,-0.10177 0.09,-0.0308 0.1745,-0.0584 0.2551,-0.0833 0.081,-0.0249 0.157,-0.0471 0.2305,-0.0667 0.074,-0.0197 0.1441,-0.0369 0.2129,-0.052 0.069,-0.0151 0.1358,-0.028 0.2022,-0.039 0.066,-0.0111 0.132,-0.0203 0.1982,-0.028 0.066,-0.008 0.133,-0.0138 0.2013,-0.0187 0.068,-0.005 0.1384,-0.009 0.2113,-0.0114 0.073,-0.003 0.1484,-0.005 0.228,-0.006 0.08,-10e-4 0.1631,-0.002 0.2518,-0.002 0.089,-3.1e-4 0.086,10e-4 0.1861,10e-4 z"
           fill="#90b837"
           id="path3433-3"
           style="stroke-width:1.61805"
           transform="translate(103.58895,-354.10371)" /><path
           id="path388"
           style="fill:#505051;fill-opacity:1;stroke-width:0.727273"
           d="m 437.59665,370.53882 c -12.23932,0 -24.4769,0.31755 -29.8164,0.95508 -76.74372,9.16307 -135.03916,47.76977 -165.4668,109.58398 -11.31036,22.97725 -17.09293,42.36894 -20.82031,69.81836 -1.81349,13.35244 -1.81618,49.20456 -0.006,62.18164 4.7516,34.06157 14.83602,62.5824 31.31836,88.57227 34.44054,54.30707 94.14652,88.97416 162.97265,94.62695 h 0.002 c 10.73063,0.882 30.83337,0.90764 41.52929,0.0527 32.04477,-2.5611 59.42405,-9.92356 85.74219,-23.05664 40.09043,-20.00558 70.89515,-50.51027 90.36914,-89.48633 16.21176,-32.44687 22.93757,-62.26593 22.91797,-101.61719 -0.0196,-39.4698 -6.81275,-70.12619 -22.48047,-101.45508 -18.49066,-36.97359 -47.69085,-66.3222 -84.625,-85.05664 -25.84844,-13.11133 -50.68604,-20.44691 -81.81836,-24.16406 -5.3395,-0.63753 -17.57903,-0.95508 -29.81836,-0.95508 z m 0.47656,62.98633 c 21.00246,0.0268 42.02914,4.39335 60.25196,13.0957 30.43922,14.53633 52.53429,37.69507 66.55859,69.76172 19.47268,44.52442 17.34405,102.74286 -5.29101,144.69531 -11.1381,20.64378 -27.99301,38.73324 -47.44922,50.92383 -17.23747,10.80029 -36.11126,17.12213 -58.54688,19.61133 -8.75843,0.9717 -25.1486,0.79847 -34.54492,-0.36523 -16.04981,-1.9878 -27.28487,-5.25736 -41.45508,-12.06446 -22.976,-11.03739 -39.70109,-25.43179 -53.57226,-46.10547 -18.21365,-27.14567 -26.62462,-58.91455 -25.48633,-96.26171 0.64338,-21.10935 3.97611,-38.17444 10.8125,-55.37305 13.65233,-34.34578 37.03798,-59.90391 68.60937,-74.97656 18.13087,-8.65595 39.11083,-12.96822 60.11328,-12.94141 z" /></g></g></g></svg>
